<?xml version="1.0" standalone="no"?><svg xmlns="http://www.w3.org/2000/svg" viewBox="0 0 1440 320"><path fill="#733BE7" fill-opacity="1" d="M0,96L30,101.3C60,107,120,117,180,149.3C240,181,300,235,360,250.7C420,267,480,245,540,250.7C600,256,660,288,720,288C780,288,840,256,900,224C960,192,1020,160,1080,144C1140,128,1200,128,1260,154.7C1320,181,1380,235,1410,261.3L1440,288L1440,320L1410,320C1380,320,1320,320,1260,320C1200,320,1140,320,1080,320C1020,320,960,320,900,320C840,320,780,320,720,320C660,320,600,320,540,320C480,320,420,320,360,320C300,320,240,320,180,320C120,320,60,320,30,320L0,320Z" style="--darkreader-inline-fill: #4314a3;" data-darkreader-inline-fill=""></path></svg>